<svg width="24" height="27" viewBox="0 0 24 27" fill="none" xmlns="http://www.w3.org/2000/svg">
<path d="M14.9938 13.1266L23.3736 3.96008C23.7713 3.5258 23.995 2.9365 23.9955 2.32181C23.996 1.70711 23.7732 1.11738 23.3762 0.682336C22.9792 0.247297 22.4405 0.0025901 21.8786 0.00204725C21.3166 0.00150439 20.7775 0.24517 20.3798 0.679442L12 9.84592L3.62021 0.679442C3.22251 0.244403 2.68311 0 2.12067 0C1.55823 0 1.01883 0.244403 0.621131 0.679442C0.223427 1.11448 0 1.70452 0 2.31976C0 2.935 0.223427 3.52504 0.621131 3.96008L9.00092 13.1266L0.621131 22.293C0.223427 22.7281 0 23.3181 0 23.9333C0 24.5486 0.223427 25.1386 0.621131 25.5737C1.01883 26.0087 1.55823 26.2531 2.12067 26.2531C2.68311 26.2531 3.22251 26.0087 3.62021 25.5737L12 16.4072L20.3798 25.5737C20.7775 26.0087 21.3169 26.2531 21.8793 26.2531C22.4418 26.2531 22.9812 26.0087 23.3789 25.5737C23.7766 25.1386 24 24.5486 24 23.9333C24 23.3181 23.7766 22.7281 23.3789 22.293L14.9938 13.1266Z" fill="black"/>
</svg>
