<svg width="24" height="27" viewBox="0 0 24 27" fill="none" xmlns="http://www.w3.org/2000/svg">
<path d="M14.9938 13.5172L23.3736 4.62353C23.7713 4.20218 23.995 3.63042 23.9955 3.03402C23.996 2.43762 23.7732 1.86543 23.3762 1.44334C22.9792 1.02125 22.4405 0.783824 21.8786 0.783297C21.3166 0.782771 20.7775 1.01919 20.3798 1.44053L12 10.3342L3.62021 1.44053C3.22251 1.01844 2.68311 0.781311 2.12067 0.781311C1.55823 0.781311 1.01883 1.01844 0.621131 1.44053C0.223427 1.86262 0 2.4351 0 3.03203C0 3.62896 0.223427 4.20144 0.621131 4.62353L9.00092 13.5172L0.621131 22.4109C0.223427 22.833 0 23.4055 0 24.0024C0 24.5993 0.223427 25.1718 0.621131 25.5939C1.01883 26.016 1.55823 26.2531 2.12067 26.2531C2.68311 26.2531 3.22251 26.016 3.62021 25.5939L12 16.7002L20.3798 25.5939C20.7775 26.016 21.3169 26.2531 21.8793 26.2531C22.4418 26.2531 22.9812 26.016 23.3789 25.5939C23.7766 25.1718 24 24.5993 24 24.0024C24 23.4055 23.7766 22.833 23.3789 22.4109L14.9938 13.5172Z" fill="black"/>
</svg>
